<svg xmlns="http://www.w3.org/2000/svg" viewBox="0 0 100 100"><defs><radialGradient id="faceGrad" cx="50" cy="50" r="50"><stop offset="0%" stop-color="#f5d6a1" stop-opacity="1" /><stop offset="100%" stop-color="#c48b5a" stop-opacity="1" /></radialGradient></defs><g><circle cx="50" cy="50" r="30" fill="url(#faceGrad)" /><path d="M30,30 C25,15 15,15 20,10 L30,30 Z" fill="url(#faceGrad)" /><path d="M70,30 C75,15 85,15 80,10 L70,30 Z" fill="url(#faceGrad)" /><circle cx="40" cy="45" r="5" fill="#fff" /><circle cx="60" cy="45" r="5" fill="#fff" /><circle cx="40" cy="45" r="2" fill="#000" /><circle cx="60" cy="45" r="2" fill="#000" /><circle cx="39" cy="44" r="0.5" fill="#fff" opacity="0.7" /><circle cx="59" cy="44" r="0.5" fill="#fff" opacity="0.7" /><path d="M48,55 L52,55 L50,58 Z" fill="#e07b7b" /><path d="M48,58 C48,62 52,62 52,58" fill="none" stroke="#000" stroke-width="1" /><line x1="38" y1="55" x2="20" y2="50" stroke="#000" stroke-width="1" /><line x1="38" y1="58" x2="20" y2="58" stroke="#000" stroke-width="1" /><line x1="38" y1="61" x2="20" y2="66" stroke="#000" stroke-width="1" /><line x1="62" y1="55" x2="80" y2="50" stroke="#000" stroke-width="1" /><line x1="62" y1="58" x2="80" y2="58" stroke="#000" stroke-width="1" /><line x1="62" y1="61" x2="80" y2="66" stroke="#000" stroke-width="1" /></g></svg>