<svg xmlns="http://www.w3.org/2000/svg" viewBox="0 0 100 100"><g><path d="M30,20 C20,30 20,60 30,70 C40,80 60,80 70,70 C80,60 80,30 70,20 C60,10 40,10 30,20 Z" fill="#ff8c00" stroke="#000" stroke-width="1" /><path d="M35,30 L45,35" stroke="#000" stroke-width="2" stroke-linecap="round" /><path d="M55,30 L45,35" stroke="#000" stroke-width="2" stroke-linecap="round" /><path d="M40,45 L50,50" stroke="#000" stroke-width="2" stroke-linecap="round" /><path d="M60,45 L50,50" stroke="#000" stroke-width="2" stroke-linecap="round" /><circle cx="45" cy="40" r="5" fill="#fff" /><circle cx="55" cy="40" r="5" fill="#fff" /><circle cx="47" cy="42" r="2" fill="#000" /><circle cx="57" cy="42" r="2" fill="#000" /><path d="M45,55 Q50,60 55,55" fill="none" stroke="#000" stroke-width="1" /><path d="M50,50 L48,52 L52,52 Z" fill="#000" /></g></svg>