<svg xmlns="http://www.w3.org/2000/svg" viewBox="0 0 100 100"><path d="M80,50 C80,20 20,20 20,50" fill="none" stroke="#000000" stroke-width="12" stroke-linecap="round" stroke-linejoin="round" transform="rotate(0 50 50)" /><path d="M80,50 C80,20 20,20 20,50" fill="none" stroke="#000000" stroke-width="12" stroke-linecap="round" stroke-linejoin="round" transform="rotate(60 50 50)" /><path d="M80,50 C80,20 20,20 20,50" fill="none" stroke="#000000" stroke-width="12" stroke-linecap="round" stroke-linejoin="round" transform="rotate(120 50 50)" /><path d="M80,50 C80,20 20,20 20,50" fill="none" stroke="#000000" stroke-width="12" stroke-linecap="round" stroke-linejoin="round" transform="rotate(180 50 50)" /><path d="M80,50 C80,20 20,20 20,50" fill="none" stroke="#000000" stroke-width="12" stroke-linecap="round" stroke-linejoin="round" transform="rotate(240 50 50)" /><path d="M80,50 C80,20 20,20 20,50" fill="none" stroke="#000000" stroke-width="12" stroke-linecap="round" stroke-linejoin="round" transform="rotate(300 50 50)" /></svg>