<svg xmlns="http://www.w3.org/2000/svg" viewBox="0 0 100 100"><defs><radialGradient id="bgGlow" cx="50%" cy="50%" r="50%"><stop offset="0%" stop-color="#FFF9C4" stop-opacity="0.8" /><stop offset="100%" stop-color="#FFF9C4" stop-opacity="0" /></radialGradient></defs><rect x="0" y="0" width="100" height="100" fill="url(#bgGlow)" /><g><path d="M30,70 C30,55 40,45 50,45 C60,45 70,55 70,70 L70,80 C70,85 65,90 60,90 L40,90 C35,90 30,85 30,80 Z" fill="#FFCC80" /><path d="M45,30 L40,45 L35,30 L30,45 L25,30 L30,55 L70,55 L75,30 L70,45 L65,30 L60,45 Z" fill="#FFCC80" /><g><circle cx="45" cy="50" r="2" fill="#6D4C41" /><circle cx="45.5" cy="49.5" r="0.8" fill="#FFF9C4" /></g></g></svg>