<svg xmlns="http://www.w3.org/2000/svg" viewBox="0 0 100 100"><defs><radialGradient id="faceGrad" cx="50%" cy="55%" r="50%"><stop offset="0" stop-color="#f5c6a5" /><stop offset="1" stop-color="#d18b6c" /></radialGradient><linearGradient id="earGrad" x1="0%" y1="0%" x2="0%" y2="100%"><stop offset="0" stop-color="#f5c6a5" /><stop offset="1" stop-color="#b86f4c" /></linearGradient></defs><g><path d="M30,35 L20,15 L35,30 Z" fill="url(#earGrad)" stroke="#8b5e3c" stroke-width="1" /><path d="M70,35 L80,15 L65,30 Z" fill="url(#earGrad)" stroke="#8b5e3c" stroke-width="1" /><circle cx="50" cy="55" r="30" fill="url(#faceGrad)" stroke="#8b5e3c" stroke-width="1" /><circle cx="40" cy="50" r="6" fill="#fff" stroke="#333" stroke-width="0.5" /><circle cx="40" cy="50" r="2.5" fill="#000" /><circle cx="39" cy="49" r="0.8" fill="#fff" opacity="0.7" /><circle cx="60" cy="50" r="6" fill="#fff" stroke="#333" stroke-width="0.5" /><circle cx="60" cy="50" r="2.5" fill="#000" /><circle cx="61" cy="49" r="0.8" fill="#fff" opacity="0.7" /><path d="M48,60 L52,60 L50,64 Z" fill="#e07b5b" stroke="#8b5e3c" stroke-width="0.5" /><path d="M48,64 C50,66 50,66 52,64" fill="none" stroke="#8b5e3c" stroke-width="1" /><line x1="30" y1="58" x2="42" y2="58" stroke="#8b5e3c" stroke-width="1" /><line x1="30" y1="62" x2="42" y2="61" stroke="#8b5e3c" stroke-width="1" /><line x1="30" y1="66" x2="42" y2="64" stroke="#8b5e3c" stroke-width="1" /><line x1="70" y1="58" x2="58" y2="58" stroke="#8b5e3c" stroke-width="1" /><line x1="70" y1="62" x2="58" y2="61" stroke="#8b5e3c" stroke-width="1" /><line x1="70" y1="66" x2="58" y2="64" stroke="#8b5e3c" stroke-width="1" /></g></svg>