<svg xmlns="http://www.w3.org/2000/svg" viewBox="0 0 24 24"><rect x="9" y="11" width="6" height="8" rx="2" ry="2" fill="#FFC0CB" stroke="black" stroke-width="0.5" /><circle cx="12" cy="8" r="3" fill="#FFC0CB" stroke="black" stroke-width="0.5" /><polygon points="9,6 10,4 11,6" fill="#FFC0CB" stroke="black" stroke-width="0.5" /><polygon points="13,6 14,4 15,6" fill="#FFC0CB" stroke="black" stroke-width="0.5" /><circle cx="11" cy="8" r="0.3" fill="black" /><circle cx="13" cy="8" r="0.3" fill="black" /><polygon points="12,9 11.5,9.5 12.5,9.5" fill="black" /><line x1="9" y1="9" x2="7" y2="9" stroke="black" stroke-width="0.5" /><line x1="9" y1="10" x2="7" y2="10" stroke="black" stroke-width="0.5" /><line x1="9" y1="8" x2="7" y2="8" stroke="black" stroke-width="0.5" /><line x1="15" y1="9" x2="17" y2="9" stroke="black" stroke-width="0.5" /><line x1="15" y1="10" x2="17" y2="10" stroke="black" stroke-width="0.5" /><line x1="15" y1="8" x2="17" y2="8" stroke="black" stroke-width="0.5" /><circle cx="6" cy="4" r="0.4" fill="#FFD700" /><circle cx="18" cy="5" r="0.4" fill="#FFD700" /><circle cx="14" cy="2" r="0.4" fill="#FFD700" /><circle cx="8" cy="3" r="0.4" fill="#FFD700" /><circle cx="20" cy="3" r="0.4" fill="#FFD700" /></svg>