<svg xmlns="http://www.w3.org/2000/svg" viewBox="0 0 100 100"><path d="M50 42 L68 42 C80 42 80 74 50 74" stroke="#000" stroke-width="8" stroke-linecap="round" transform="rotate(0 50 50)" /><path d="M50 42 L68 42 C80 42 80 74 50 74" stroke="#000" stroke-width="8" stroke-linecap="round" transform="rotate(60 50 50)" /><path d="M50 42 L68 42 C80 42 80 74 50 74" stroke="#000" stroke-width="8" stroke-linecap="round" transform="rotate(120 50 50)" /><path d="M50 42 L68 42 C80 42 80 74 50 74" stroke="#000" stroke-width="8" stroke-linecap="round" transform="rotate(180 50 50)" /><path d="M50 42 L68 42 C80 42 80 74 50 74" stroke="#000" stroke-width="8" stroke-linecap="round" transform="rotate(240 50 50)" /><path d="M50 42 L68 42 C80 42 80 74 50 74" stroke="#000" stroke-width="8" stroke-linecap="round" transform="rotate(300 50 50)" /></svg>