<svg xmlns="http://www.w3.org/2000/svg" viewBox="0 0 100 100"><path d="M 40,70 L 40,95 A 10,10 0 0 0 60,95 L 60,70 A 10,10 0 0 0 40,70 Z" fill="#000000" transform="rotate(0 50 50)" /><path d="M 40,70 L 40,95 A 10,10 0 0 0 60,95 L 60,70 A 10,10 0 0 0 40,70 Z" fill="#000000" transform="rotate(60 50 50)" /><path d="M 40,70 L 40,95 A 10,10 0 0 0 60,95 L 60,70 A 10,10 0 0 0 40,70 Z" fill="#000000" transform="rotate(120 50 50)" /><path d="M 40,70 L 40,95 A 10,10 0 0 0 60,95 L 60,70 A 10,10 0 0 0 40,70 Z" fill="#000000" transform="rotate(180 50 50)" /><path d="M 40,70 L 40,95 A 10,10 0 0 0 60,95 L 60,70 A 10,10 0 0 0 40,70 Z" fill="#000000" transform="rotate(240 50 50)" /><path d="M 40,70 L 40,95 A 10,10 0 0 0 60,95 L 60,70 A 10,10 0 0 0 40,70 Z" fill="#000000" transform="rotate(300 50 50)" /></svg>