<svg xmlns="http://www.w3.org/2000/svg" viewBox="0 0 100 100"><defs><radialGradient id="faceGrad" cx="50%" cy="50%" r="50%"><stop offset="0%" stop-color="#f5e0c9" /><stop offset="100%" stop-color="#cfa68d" /></radialGradient></defs><g><path d="M30,45 Q25,30 30,20 L40,40 Z" fill="url(#faceGrad)" stroke="black" stroke-width="2" /><path d="M70,45 Q75,30 70,20 L60,40 Z" fill="url(#faceGrad)" stroke="black" stroke-width="2" /><circle cx="50" cy="55" r="30" fill="url(#faceGrad)" stroke="black" stroke-width="2" /><circle cx="40" cy="50" r="5" fill="white" stroke="black" stroke-width="1" /><circle cx="40" cy="50" r="2" fill="black" /><circle cx="60" cy="50" r="5" fill="white" stroke="black" stroke-width="1" /><circle cx="60" cy="50" r="2" fill="black" /><path d="M50,60 L45,65 L55,65 Z" fill="#e07" stroke="black" stroke-width="1" /><path d="M45,65 C45,70 55,70 55,65" fill="none" stroke="black" stroke-width="1" /><line x1="35" y1="60" x2="20" y2="55" stroke="black" stroke-width="1" /><line x1="35" y1="65" x2="20" y2="70" stroke="black" stroke-width="1" /><line x1="35" y1="70" x2="20" y2="75" stroke="black" stroke-width="1" /><line x1="65" y1="60" x2="80" y2="55" stroke="black" stroke-width="1" /><line x1="65" y1="65" x2="80" y2="70" stroke="black" stroke-width="1" /><line x1="65" y1="70" x2="80" y2="75" stroke="black" stroke-width="1" /></g></svg>