<svg xmlns="http://www.w3.org/2000/svg" viewBox="0 0 100 100"><defs><radialGradient id="butterflyGrad" cx="50%" cy="50%" r="50%"><stop offset="0%" stop-color="#ff9a9e" /><stop offset="100%" stop-color="#fad0c4" /></radialGradient></defs><g><path d="M25,60 C25,45 55,45 55,60 C55,75 25,75 25,60 Z" fill="#777777" /><circle cx="40" cy="40" r="12" fill="#555555" /><path d="M32,30 L36,20 L40,30 Z" fill="#555555" /><path d="M48,30 L44,20 L40,30 Z" fill="#555555" /><path d="M55,70 C65,60 65,80 75,70" fill="none" stroke="#555555" stroke-width="2" /><circle cx="36" cy="38" r="1.5" fill="#ffffff" /><circle cx="44" cy="38" r="1.5" fill="#ffffff" /><circle cx="36" cy="38" r="0.7" fill="#000000" /><circle cx="44" cy="38" r="0.7" fill="#000000" /></g><g><path d="M60,30 C55,20 45,20 40,30 C45,40 55,40 60,30 Z" fill="url(#butterflyGrad)" stroke="#ff66aa" stroke-width="0.5" /><path d="M60,30 C65,20 75,20 80,30 C75,40 65,40 60,30 Z" fill="url(#butterflyGrad)" stroke="#ff66aa" stroke-width="0.5" /><line x1="60" y1="30" x2="60" y2="45" stroke="#ff66aa" stroke-width="1" /></g></svg>