<svg xmlns="http://www.w3.org/2000/svg" viewBox="0 0 100 100"><defs><radialGradient id="faceGradient" cx="50" cy="50" r="38"><stop offset="0%" stop-color="#f7fafc" /><stop offset="80%" stop-color="#e2e8f0" /><stop offset="100%" stop-color="#cbd5e1" /></radialGradient><linearGradient id="bubbleGradient" x1="0" y1="70" x2="100" y2="90"><stop offset="0%" stop-color="#fff" /><stop offset="100%" stop-color="#e0e7ef" /></linearGradient><radialGradient id="eyeGradient" cx="52" cy="48" r="6"><stop offset="0%" stop-color="#fff" /><stop offset="80%" stop-color="#4b5563" /><stop offset="100%" stop-color="#1f2937" /></radialGradient></defs><g opacity="1"><circle cx="50" cy="50" r="38" fill="url(#faceGradient)" stroke="#64748b" stroke-width="2" /><path d="M32,60 C28,54 28,44 36,40 C38,30 62,30 64,40 C72,44 72,54 68,60 C62,68 38,68 32,60 Z" fill="none" stroke="#64748b" stroke-width="2" stroke-linejoin="round" /><g opacity="1"><path d="M43,48 C44,46 48,46 49,48" fill="none" stroke="#334155" stroke-width="2" stroke-linecap="round" /><circle cx="44" cy="48" r="3" fill="url(#eyeGradient)" stroke="#334155" stroke-width="0.5" /><circle cx="56" cy="48" r="3" fill="url(#eyeGradient)" stroke="#334155" stroke-width="0.5" /><circle cx="43.5" cy="47.5" r="0.7" fill="#fff" opacity="0.7" /><circle cx="55.5" cy="47.5" r="0.7" fill="#fff" opacity="0.7" /></g><path d="M44,58 C46,62 54,62 56,58" fill="none" stroke="#334155" stroke-width="2" stroke-linecap="round" /><path d="M38,54 C40,56 60,56 62,54" fill="none" stroke="#64748b" stroke-width="1.2" stroke-linecap="round" opacity="0.4" /><path d="M50,12 C60,14 74,26 76,44 C78,62 66,78 50,78 C34,78 22,62 24,44 C26,26 40,14 50,12 Z" fill="none" stroke="#cbd5e1" stroke-width="1.2" opacity="0.5" /></g><g opacity="1"><path d="M70,74 Q92,74 92,88 Q92,92 88,92 Q80,92 70,88 Q68,87 68,84 Q68,74 70,74 Z" fill="url(#bubbleGradient)" stroke="#cbd5e1" stroke-width="1.2" /><path d="M88,92 Q86,95 82,95 Q80,95 80,92" fill="none" stroke="#cbd5e1" stroke-width="1.2" stroke-linecap="round" /></g><circle cx="50" cy="50" r="44" fill="#60a5fa" opacity="0.08" /></svg>